<svg xmlns="http://www.w3.org/2000/svg">
  <symbol id="all" viewBox="0 0 48 48"><circle cx="24" cy="24" r="22" fill="#EAF5FF"/><circle cx="17" cy="17" r="6" fill="#FF7B54"/><circle cx="31" cy="17" r="6" fill="#4FB6E9"/><circle cx="17" cy="31" r="6" fill="#65C18C"/><circle cx="31" cy="31" r="6" fill="#FFD166"/></symbol>
  <symbol id="korean" viewBox="0 0 48 48"><circle cx="24" cy="24" r="22" fill="#FFF2E5"/><path d="M11 25h26c0 8-5.8 13-13 13s-13-5-13-13Z" fill="#D96B2B"/><path d="M14 25c1.5-7 6-11 10-11s8.5 4 10 11" fill="#FFF"/><path d="M17 23c3-4 11-4 14 0" stroke="#F2B94B" stroke-width="3" fill="none" stroke-linecap="round"/></symbol>
  <symbol id="chicken" viewBox="0 0 48 48"><circle cx="24" cy="24" r="22" fill="#FFF0E8"/><path d="M14 31c-3-5 1-12 7-14 6-2 12 1 13 6 2 6-4 12-10 12-4 0-7-2-10-4Z" fill="#D7772C"/><circle cx="13" cy="34" r="4" fill="#FFE4C4"/><circle cx="9" cy="36" r="3" fill="#FFE4C4"/><path d="M19 21c3-2 7-2 10 1" stroke="#FFB05A" stroke-width="2.5" fill="none" stroke-linecap="round"/></symbol>
  <symbol id="pizza" viewBox="0 0 48 48"><circle cx="24" cy="24" r="22" fill="#FFF5D8"/><path d="M11 13 38 19 18 39Z" fill="#FFD15C"/><path d="M11 13c7 0 19 2 27 6" stroke="#C86B32" stroke-width="5" stroke-linecap="round"/><circle cx="23" cy="23" r="3" fill="#E84B3C"/><circle cx="29" cy="27" r="3" fill="#E84B3C"/><circle cx="21" cy="31" r="2.5" fill="#69A84F"/></symbol>
  <symbol id="chinese" viewBox="0 0 48 48"><circle cx="24" cy="24" r="22" fill="#FFECEC"/><path d="M12 25h24c-1 8-5 12-12 12s-11-4-12-12Z" fill="#D9473F"/><path d="M16 25c2-6 14-6 16 0" fill="#FFE3A1"/><path d="m30 11 7 15M35 10l5 15" stroke="#6F4633" stroke-width="2.5" stroke-linecap="round"/></symbol>
  <symbol id="lunchbox" viewBox="0 0 48 48"><circle cx="24" cy="24" r="22" fill="#EEF7E8"/><rect x="10" y="15" width="28" height="22" rx="5" fill="#6FB46D"/><path d="M24 15v22M10 25h28" stroke="#E9F7D7" stroke-width="2"/><circle cx="17" cy="20" r="3" fill="#FFD45C"/><circle cx="31" cy="31" r="3" fill="#EF6A5B"/></symbol>
  <symbol id="snack" viewBox="0 0 48 48"><circle cx="24" cy="24" r="22" fill="#FFF0F0"/><path d="M14 20h20l-2 17H16Z" fill="#E84D45"/><path d="M18 20c0-5 12-5 12 0" fill="#FFD0A3"/><path d="M19 16v12M24 14v14M29 16v12" stroke="#FFF0B8" stroke-width="3" stroke-linecap="round"/></symbol>
  <symbol id="pork" viewBox="0 0 48 48"><circle cx="24" cy="24" r="22" fill="#FFF0E6"/><path d="M11 28c2-10 12-16 23-11 7 4 4 16-6 19-8 3-15-1-17-8Z" fill="#B96C45"/><path d="M15 27c5-6 12-7 18-4" stroke="#F6C69B" stroke-width="3" fill="none" stroke-linecap="round"/><circle cx="30" cy="28" r="2" fill="#7F3C2B"/></symbol>
  <symbol id="seafood" viewBox="0 0 48 48"><circle cx="24" cy="24" r="22" fill="#E7F7FF"/><path d="M9 25c7-10 19-11 27-3l5-5v16l-5-5c-8 8-20 7-27-3Z" fill="#3D9ED7"/><circle cx="18" cy="23" r="2" fill="#FFF"/><path d="M25 20c3 2 3 7 0 10" stroke="#BFEAFF" stroke-width="2" fill="none"/></symbol>
  <symbol id="stew" viewBox="0 0 48 48"><circle cx="24" cy="24" r="22" fill="#FFF0E5"/><path d="M10 25h28v4c0 7-6 10-14 10s-14-3-14-10Z" fill="#CE5A38"/><rect x="8" y="23" width="32" height="4" rx="2" fill="#7A4030"/><path d="M17 20c-3-4 3-5 0-9M25 20c-3-4 3-5 0-9M33 20c-3-4 3-5 0-9" stroke="#FFB76A" stroke-width="2.5" fill="none" stroke-linecap="round"/></symbol>
  <symbol id="noodles" viewBox="0 0 48 48"><circle cx="24" cy="24" r="22" fill="#FFF6D9"/><path d="M11 25h26c-1 8-6 13-13 13S12 33 11 25Z" fill="#4AA0C8"/><path d="M17 24c1-7 2-10 4-10s1 7 3 10c2-4 1-10 4-10 2 0 1 7 3 10" stroke="#F1C84B" stroke-width="3" fill="none" stroke-linecap="round"/><path d="m31 10 7 16M36 9l5 16" stroke="#6F4935" stroke-width="2"/></symbol>
  <symbol id="grill" viewBox="0 0 48 48"><circle cx="24" cy="24" r="22" fill="#FFF0E8"/><rect x="10" y="24" width="28" height="10" rx="4" fill="#555D66"/><path d="M15 27h18M18 34l-3 6M30 34l3 6" stroke="#CDD4D9" stroke-width="2.5" stroke-linecap="round"/><path d="M16 21c-3-4 3-5 0-9M24 21c-3-4 3-5 0-9M32 21c-3-4 3-5 0-9" stroke="#FF713B" stroke-width="3" fill="none" stroke-linecap="round"/></symbol>
  <symbol id="japanese" viewBox="0 0 48 48"><circle cx="24" cy="24" r="22" fill="#F2EDFF"/><path d="M11 28c5-11 21-14 27-3-4 10-20 15-27 3Z" fill="#E4A943"/><path d="M13 26c7-5 15-7 23-3" stroke="#FFF0B0" stroke-width="4" fill="none" stroke-linecap="round"/><path d="m29 10 8 18M34 9l6 18" stroke="#5B4030" stroke-width="2.5"/></symbol>
  <symbol id="dessert" viewBox="0 0 48 48"><circle cx="24" cy="24" r="22" fill="#FFF0F7"/><path d="M15 21h18l-2 17H17Z" fill="#7CC7C9"/><path d="M17 21c0-7 14-7 14 0" fill="#FF9EC4"/><circle cx="24" cy="13" r="3" fill="#E84B58"/><path d="M28 9c3 0 4 2 4 4" stroke="#5EAD72" stroke-width="2" fill="none"/></symbol>
  <symbol id="night" viewBox="0 0 48 48"><circle cx="24" cy="24" r="22" fill="#EDEBFF"/><path d="M27 9a14 14 0 1 0 12 21A13 13 0 0 1 27 9Z" fill="#6658B8"/><path d="m13 30 3-6 3 6-3 6Zm20-16 2-4 2 4-2 4Z" fill="#FFD86A"/></symbol>
  <symbol id="mala" viewBox="0 0 48 48"><circle cx="24" cy="24" r="22" fill="#FFF0E6"/><path d="M12 26h24c-1 8-5 12-12 12s-11-4-12-12Z" fill="#C94736"/><path d="M15 24c4-7 14-7 18 0" fill="#EF8A3C"/><path d="M18 20c-2-4 2-6 2-9M25 20c-2-4 2-6 2-9M32 21c-2-4 2-6 2-9" stroke="#E44332" stroke-width="2.5" fill="none" stroke-linecap="round"/><circle cx="21" cy="24" r="2" fill="#5DAA58"/><circle cx="29" cy="24" r="2" fill="#FFD04A"/></symbol>
  <symbol id="burger" viewBox="0 0 48 48"><circle cx="24" cy="24" r="22" fill="#FFF4DE"/><path d="M12 22c1-8 23-8 24 0Z" fill="#E8A341"/><path d="M12 31h24c0 5-4 7-12 7s-12-2-12-7Z" fill="#D99235"/><rect x="11" y="23" width="26" height="5" rx="2" fill="#6BB45A"/><rect x="13" y="27" width="22" height="5" rx="2" fill="#8B4D31"/><circle cx="19" cy="18" r="1" fill="#FFF1B5"/><circle cx="28" cy="18" r="1" fill="#FFF1B5"/></symbol>
  <symbol id="banchan" viewBox="0 0 48 48"><circle cx="24" cy="24" r="22" fill="#F0F8E8"/><circle cx="16" cy="18" r="7" fill="#F2B44C"/><circle cx="32" cy="18" r="7" fill="#E96555"/><circle cx="16" cy="32" r="7" fill="#64AD66"/><circle cx="32" cy="32" r="7" fill="#8F65BC"/><circle cx="16" cy="18" r="3" fill="#FFF2B8"/><circle cx="32" cy="18" r="3" fill="#FFD1B0"/><circle cx="16" cy="32" r="3" fill="#DDF2B4"/><circle cx="32" cy="32" r="3" fill="#E0C8FF"/></symbol>
  <symbol id="bakery" viewBox="0 0 48 48"><circle cx="24" cy="24" r="22" fill="#FFF3E2"/><path d="M12 29c0-10 7-17 15-17 7 0 11 6 10 13-1 9-8 13-16 12-5-1-9-3-9-8Z" fill="#D89443"/><path d="m19 17 5 5M27 15l4 5M16 24l5 4M27 25l5 4" stroke="#FFE0A1" stroke-width="2.5" stroke-linecap="round"/></symbol>
  <symbol id="other" viewBox="0 0 48 48"><circle cx="24" cy="24" r="22" fill="#EEF2F6"/><circle cx="15" cy="24" r="4" fill="#6AA6C9"/><circle cx="24" cy="24" r="4" fill="#F1A64A"/><circle cx="33" cy="24" r="4" fill="#75B875"/></symbol>
</svg>
