<svg xmlns="http://www.w3.org/2000/svg">
  <symbol id="all" viewBox="0 0 48 48"><g fill="none" stroke="currentColor" stroke-width="3" stroke-linecap="round" stroke-linejoin="round"><rect x="7" y="7" width="13" height="13" rx="3"/><rect x="28" y="7" width="13" height="13" rx="3"/><rect x="7" y="28" width="13" height="13" rx="3"/><rect x="28" y="28" width="13" height="13" rx="3"/></g></symbol>
  <symbol id="korean" viewBox="0 0 48 48"><g fill="none" stroke="currentColor" stroke-width="3" stroke-linecap="round" stroke-linejoin="round"><path d="M9 24h30c-1 11-7 17-15 17S10 35 9 24Z"/><path d="M13 19c3-5 19-5 22 0M17 14c2-4 12-4 14 0M15 30h18"/></g></symbol>
  <symbol id="chicken" viewBox="0 0 48 48"><g fill="none" stroke="currentColor" stroke-width="3" stroke-linecap="round" stroke-linejoin="round"><path d="M30 11c7 3 8 12 3 18-5 7-15 8-20 3-4-4-2-10 3-13 5-4 7-10 14-8Z"/><path d="m13 31-5 5m0 0-2-3m2 3 3 2"/></g></symbol>
  <symbol id="chinese" viewBox="0 0 48 48"><g fill="none" stroke="currentColor" stroke-width="3" stroke-linecap="round" stroke-linejoin="round"><path d="M8 25h28c-1 10-6 15-14 15S9 35 8 25Z"/><path d="m32 8-8 18M39 10 28 27M13 19c4-4 11-4 15 0"/></g></symbol>
  <symbol id="snack" viewBox="0 0 48 48"><g fill="none" stroke="currentColor" stroke-width="3" stroke-linecap="round" stroke-linejoin="round"><path d="M10 31c4-10 24-10 28 0l-3 9H13l-3-9Z"/><path d="M15 27v-8m9 6V13m9 14v-9M12 36h24"/></g></symbol>
  <symbol id="pizza" viewBox="0 0 48 48"><g fill="none" stroke="currentColor" stroke-width="3" stroke-linecap="round" stroke-linejoin="round"><path d="M8 11c12-6 22-5 32 2L25 41 8 11Z"/><path d="M8 11c11 8 21 8 32 2"/><circle cx="22" cy="23" r="2"/><circle cx="29" cy="29" r="2"/></g></symbol>
  <symbol id="burger" viewBox="0 0 48 48"><g fill="none" stroke="currentColor" stroke-width="3" stroke-linecap="round" stroke-linejoin="round"><path d="M8 21c1-9 7-13 16-13s15 4 16 13H8ZM8 34h32v6H8zM9 27h30l-4 7H13l-4-7Z"/><path d="M14 21h20"/></g></symbol>
  <symbol id="pork" viewBox="0 0 48 48"><g fill="none" stroke="currentColor" stroke-width="3" stroke-linecap="round" stroke-linejoin="round"><path d="M9 26c0-9 7-16 16-16 8 0 14 5 15 12 1 9-6 17-16 17S9 34 9 26Z"/><path d="M16 22c4-4 12-4 16 0M17 30h14"/><circle cx="20" cy="26" r="1" fill="currentColor" stroke="none"/><circle cx="28" cy="26" r="1" fill="currentColor" stroke="none"/></g></symbol>
  <symbol id="noodles" viewBox="0 0 48 48"><g fill="none" stroke="currentColor" stroke-width="3" stroke-linecap="round" stroke-linejoin="round"><path d="M8 25h30c-1 10-6 15-15 15S9 35 8 25Z"/><path d="M13 13h23M18 13v10m6-10v10m6-10v10"/></g></symbol>
  <symbol id="cafe" viewBox="0 0 48 48"><g fill="none" stroke="currentColor" stroke-width="3" stroke-linecap="round" stroke-linejoin="round"><path d="M10 17h25v13c0 7-5 11-12 11S10 37 10 30V17Z"/><path d="M35 21h3c5 0 5 8 0 8h-3M17 12c0-3 3-3 3-6m7 6c0-3 3-3 3-6"/></g></symbol>
  <symbol id="night" viewBox="0 0 48 48"><g fill="none" stroke="currentColor" stroke-width="3" stroke-linecap="round" stroke-linejoin="round"><path d="M31 8c-7 2-11 8-10 15s7 12 14 12c-4 5-12 7-19 3C8 34 6 24 10 16 14 8 23 5 31 8Z"/><path d="M31 20h9M35.5 15.5v9"/></g></symbol>
  <symbol id="seafood" viewBox="0 0 48 48"><g fill="none" stroke="currentColor" stroke-width="3" stroke-linecap="round" stroke-linejoin="round"><path d="M9 24c8-10 19-11 29-2-10 11-21 11-29 2Z"/><path d="m9 24-5-6v12l5-6Zm16-6c-2 4-2 8 0 12"/><circle cx="32" cy="21" r="1.5" fill="currentColor" stroke="none"/></g></symbol>
  <symbol id="bakery" viewBox="0 0 48 48"><g fill="none" stroke="currentColor" stroke-width="3" stroke-linecap="round" stroke-linejoin="round"><path d="M8 29c0-7 5-12 12-12 2-6 12-7 16-2 6 1 8 9 3 13v12H10L8 29Z"/><path d="M18 19c2 3 3 7 3 11m7-16c1 5 1 10 0 16m-14 0h20"/></g></symbol>
  <symbol id="dessert" viewBox="0 0 48 48"><g fill="none" stroke="currentColor" stroke-width="3" stroke-linecap="round" stroke-linejoin="round"><path d="M11 22h26l-4 18H15l-4-18Z"/><path d="M16 22c0-5 4-9 8-9s8 4 8 9M24 13V7"/><circle cx="24" cy="6" r="2"/></g></symbol>
  <symbol id="sandwich" viewBox="0 0 48 48"><g fill="none" stroke="currentColor" stroke-width="3" stroke-linecap="round" stroke-linejoin="round"><path d="m8 22 16-12 16 12-16 8L8 22Zm3 7 13 8 13-8M11 22v7m26-7v7"/><path d="m14 25 7 4 6-4 7 3"/></g></symbol>
  <symbol id="icecream" viewBox="0 0 48 48"><g fill="none" stroke="currentColor" stroke-width="3" stroke-linecap="round" stroke-linejoin="round"><path d="M15 19a9 9 0 0 1 18 0c5 1 5 8 0 9H15c-5-1-5-8 0-9Z"/><path d="m17 28 7 14 7-14M20 34h8"/></g></symbol>
  <symbol id="donut" viewBox="0 0 48 48"><g fill="none" stroke="currentColor" stroke-width="3" stroke-linecap="round" stroke-linejoin="round"><circle cx="24" cy="24" r="16"/><circle cx="24" cy="24" r="6"/><path d="m13 16 4 2m13-4-2 4m8 10-4-1M17 34l2-4"/></g></symbol>
  <symbol id="salad" viewBox="0 0 48 48"><g fill="none" stroke="currentColor" stroke-width="3" stroke-linecap="round" stroke-linejoin="round"><path d="M8 25h32c-2 10-7 15-16 15S10 35 8 25Z"/><path d="M15 23c-1-7 5-10 10-6 1-7 10-8 12-2 2 5-2 9-7 10M23 24c-4-7-9-9-13-5"/></g></symbol>
  <symbol id="convenience" viewBox="0 0 48 48"><g fill="none" stroke="currentColor" stroke-width="3" stroke-linecap="round" stroke-linejoin="round"><path d="M9 18h30v23H9zM7 18l3-10h28l3 10"/><path d="M15 27h8v14m6-14h6v7h-6zM7 18h34"/></g></symbol>
  <symbol id="drink" viewBox="0 0 48 48"><g fill="none" stroke="currentColor" stroke-width="3" stroke-linecap="round" stroke-linejoin="round"><path d="M13 15h22l-3 26H16l-3-26Z"/><path d="m27 15 6-9h6M17 22h15"/><circle cx="21" cy="28" r="2"/><circle cx="27" cy="34" r="2"/></g></symbol>
  <symbol id="other" viewBox="0 0 48 48"><g fill="none" stroke="currentColor" stroke-width="3" stroke-linecap="round" stroke-linejoin="round"><circle cx="11" cy="24" r="3"/><circle cx="24" cy="24" r="3"/><circle cx="37" cy="24" r="3"/></g></symbol>
</svg>
