<svg xmlns="http://www.w3.org/2000/svg">
  <symbol id="location" viewBox="0 0 24 24"><path d="M12 21s7-6.1 7-12a7 7 0 1 0-14 0c0 5.9 7 12 7 12Z" fill="none" stroke="currentColor" stroke-width="1.9"/><circle cx="12" cy="9" r="2.4" fill="none" stroke="currentColor" stroke-width="1.9"/></symbol>
  <symbol id="bell" viewBox="0 0 24 24"><path d="M5 17h14l-1.7-2.3V10a5.3 5.3 0 0 0-10.6 0v4.7L5 17Z" fill="none" stroke="currentColor" stroke-width="1.8" stroke-linejoin="round"/><path d="M10 20h4" fill="none" stroke="currentColor" stroke-width="1.8" stroke-linecap="round"/></symbol>
  <symbol id="search" viewBox="0 0 24 24"><circle cx="10.5" cy="10.5" r="6.2" fill="none" stroke="currentColor" stroke-width="2"/><path d="m15.2 15.2 4.3 4.3" fill="none" stroke="currentColor" stroke-width="2" stroke-linecap="round"/></symbol>
  <symbol id="heart" viewBox="0 0 24 24"><path d="M12 20S4 15.5 4 9.5A4.5 4.5 0 0 1 12 6a4.5 4.5 0 0 1 8 3.5C20 15.5 12 20 12 20Z" fill="none" stroke="currentColor" stroke-width="1.8" stroke-linejoin="round"/></symbol>
  <symbol id="recent" viewBox="0 0 24 24"><path d="M5.4 7.2H2.8V4.6" fill="none" stroke="currentColor" stroke-width="1.8" stroke-linecap="round"/><path d="M4.1 7.1A8.5 8.5 0 1 1 3.6 15" fill="none" stroke="currentColor" stroke-width="1.8" stroke-linecap="round"/><path d="M12 7.5V12l3 2" fill="none" stroke="currentColor" stroke-width="1.8" stroke-linecap="round"/></symbol>
  <symbol id="store" viewBox="0 0 24 24"><path d="M4 10v10h16V10M3 9l2-5h14l2 5" fill="none" stroke="currentColor" stroke-width="1.8" stroke-linejoin="round"/><path d="M3 9c0 2 3 2 3 0 0 2 3 2 3 0 0 2 3 2 3 0 0 2 3 2 3 0 0 2 3 2 3 0 0 2 3 2 3 0M9 20v-6h6v6" fill="none" stroke="currentColor" stroke-width="1.5"/></symbol>
  <symbol id="package" viewBox="0 0 24 24"><path d="m4 7 8-4 8 4v10l-8 4-8-4V7Z" fill="none" stroke="currentColor" stroke-width="1.8" stroke-linejoin="round"/><path d="m4.5 7 7.5 4 7.5-4M12 11v10" fill="none" stroke="currentColor" stroke-width="1.6"/></symbol>
  <symbol id="map" viewBox="0 0 24 24"><path d="m3 5 6-2 6 2 6-2v16l-6 2-6-2-6 2V5Z" fill="none" stroke="currentColor" stroke-width="1.7"/><path d="M9 3v16M15 5v16" fill="none" stroke="currentColor" stroke-width="1.5"/></symbol>
  <symbol id="card" viewBox="0 0 24 24"><rect x="3" y="5" width="18" height="14" rx="2" fill="none" stroke="currentColor" stroke-width="1.8"/><path d="M3 9h18M7 15h4" fill="none" stroke="currentColor" stroke-width="1.8"/></symbol>
  <symbol id="food" viewBox="0 0 24 24"><path d="M4 4v6a3 3 0 0 0 3 3V4M10 4v6a3 3 0 0 1-3 3v7M16 4v16M16 4c4 2 4 8 0 10" fill="none" stroke="currentColor" stroke-width="1.8" stroke-linecap="round"/></symbol>
  <symbol id="hospital-pill" viewBox="0 0 64 64"><rect x="7" y="16" width="31" height="39" rx="4" fill="#fff" stroke="#d63d35" stroke-width="3"/><path d="M17 24h12M23 18v12" stroke="#d63d35" stroke-width="4" stroke-linecap="round"/><path d="M14 40h7v15h-7zm13 0h6v15h-6z" fill="#efb3ae"/><g transform="rotate(-38 45 42)"><rect x="35" y="34" width="23" height="14" rx="7" fill="#2a78c6"/><path d="M46.5 34v14" stroke="#fff" stroke-width="2"/></g></symbol>
  <symbol id="restroom" viewBox="0 0 64 64"><circle cx="20" cy="13" r="6" fill="#2085c7"/><circle cx="44" cy="13" r="6" fill="#ef5b62"/><path d="M14 22h12l5 16h-7v18h-8V38H9l5-16Z" fill="#2085c7"/><path d="M38 22h12l7 22h-8v12H39V44h-8l7-22Z" fill="#ef5b62"/><path d="M32 8v48" stroke="#ced8df" stroke-width="2"/></symbol>
  <symbol id="car-crash" viewBox="0 0 64 64"><path d="m30 28 3-12 5 10 9-8-1 13 13-1-10 8 8 8-13-2-2 12-7-10-10 7 3-13-13-1 11-7-9-8 14 4Z" fill="#ffd338" stroke="#e79216" stroke-width="1.5"/><path d="m6 38 4-10h17l5 10v12H6V38Z" fill="#2387d1" stroke="#155784" stroke-width="2"/><path d="m35 38 5-9h15l4 9v12H35V38Z" fill="#ef514b" stroke="#8e2928" stroke-width="2"/><path d="M12 31h12l2 6H9l3-6Zm30 1h11l2 5H39l3-5Z" fill="#dff5ff"/><circle cx="14" cy="50" r="5" fill="#253341"/><circle cx="26" cy="50" r="5" fill="#253341"/><circle cx="43" cy="50" r="5" fill="#253341"/><circle cx="55" cy="50" r="5" fill="#253341"/></symbol>
  <symbol id="used-exchange" viewBox="0 0 64 64"><path d="M12 21c7-9 19-12 29-7" fill="none" stroke="#da8518" stroke-width="4" stroke-linecap="round"/><path d="m39 8 8 7-9 5" fill="none" stroke="#da8518" stroke-width="4" stroke-linecap="round" stroke-linejoin="round"/><path d="M52 43c-7 9-19 12-29 7" fill="none" stroke="#19877c" stroke-width="4" stroke-linecap="round"/><path d="m25 56-8-7 9-5" fill="none" stroke="#19877c" stroke-width="4" stroke-linecap="round" stroke-linejoin="round"/><rect x="24" y="19" width="18" height="28" rx="3" fill="#fff" stroke="#263c4f" stroke-width="3"/><rect x="28" y="24" width="10" height="14" rx="1" fill="#79c9e8"/><path d="M8 37c6-3 11-2 17 3l-4 9c-7 0-11-3-15-7Z" fill="#ffd2ad"/><path d="M56 28c-6 3-11 2-17-3l4-9c7 0 11 3 15 7Z" fill="#ffd2ad"/><rect x="42" y="21" width="12" height="8" rx="1" fill="#80ba58"/><path d="M45 25h6" stroke="#fff" stroke-width="2"/></symbol>
  <symbol id="news-sheet" viewBox="0 0 64 64"><path d="M11 12h38v42H11z" fill="#fff" stroke="#4c58a8" stroke-width="3"/><path d="M20 21h20M20 28h20M20 43h20M20 49h20" stroke="#4c58a8" stroke-width="3" stroke-linecap="round"/><rect x="20" y="33" width="8" height="6" fill="#f2bd36"/><rect x="32" y="33" width="8" height="6" fill="#76bcd7"/><path d="M49 23h6v34H18v-3" fill="#e8ebff" stroke="#4c58a8" stroke-width="3" stroke-linejoin="round"/></symbol>
</svg>
