<svg xmlns="http://www.w3.org/2000/svg">
  <symbol id="location" viewBox="0 0 24 24"><path d="M12 21s7-6.1 7-12a7 7 0 1 0-14 0c0 5.9 7 12 7 12Z" fill="none" stroke="currentColor" stroke-width="1.9"/><circle cx="12" cy="9" r="2.4" fill="none" stroke="currentColor" stroke-width="1.9"/></symbol>
  <symbol id="bell" viewBox="0 0 24 24"><path d="M5 17h14l-1.7-2.3V10a5.3 5.3 0 0 0-10.6 0v4.7L5 17Z" fill="none" stroke="currentColor" stroke-width="1.8" stroke-linejoin="round"/><path d="M10 20h4" fill="none" stroke="currentColor" stroke-width="1.8" stroke-linecap="round"/></symbol>
  <symbol id="search" viewBox="0 0 24 24"><circle cx="10.5" cy="10.5" r="6.2" fill="none" stroke="currentColor" stroke-width="2"/><path d="m15.2 15.2 4.3 4.3" fill="none" stroke="currentColor" stroke-width="2" stroke-linecap="round"/></symbol>
  <symbol id="heart" viewBox="0 0 24 24"><path d="M12 20S4 15.5 4 9.5A4.5 4.5 0 0 1 12 6a4.5 4.5 0 0 1 8 3.5C20 15.5 12 20 12 20Z" fill="none" stroke="currentColor" stroke-width="1.8" stroke-linejoin="round"/></symbol>
  <symbol id="recent" viewBox="0 0 24 24"><path d="M5.4 7.2H2.8V4.6" fill="none" stroke="currentColor" stroke-width="1.8" stroke-linecap="round"/><path d="M4.1 7.1A8.5 8.5 0 1 1 3.6 15" fill="none" stroke="currentColor" stroke-width="1.8" stroke-linecap="round"/><path d="M12 7.5V12l3 2" fill="none" stroke="currentColor" stroke-width="1.8" stroke-linecap="round"/></symbol>
  <symbol id="store" viewBox="0 0 24 24"><path d="M4 10v10h16V10M3 9l2-5h14l2 5" fill="none" stroke="currentColor" stroke-width="1.8" stroke-linejoin="round"/><path d="M3 9c0 2 3 2 3 0 0 2 3 2 3 0 0 2 3 2 3 0 0 2 3 2 3 0 0 2 3 2 3 0 0 2 3 2 3 0M9 20v-6h6v6" fill="none" stroke="currentColor" stroke-width="1.5"/></symbol>
  <symbol id="package" viewBox="0 0 24 24"><path d="m4 7 8-4 8 4v10l-8 4-8-4V7Z" fill="none" stroke="currentColor" stroke-width="1.8" stroke-linejoin="round"/><path d="m4.5 7 7.5 4 7.5-4M12 11v10" fill="none" stroke="currentColor" stroke-width="1.6"/></symbol>
  <symbol id="map" viewBox="0 0 24 24"><path d="m3 5 6-2 6 2 6-2v16l-6 2-6-2-6 2V5Z" fill="none" stroke="currentColor" stroke-width="1.7"/><path d="M9 3v16M15 5v16" fill="none" stroke="currentColor" stroke-width="1.5"/></symbol>
  <symbol id="card" viewBox="0 0 24 24"><rect x="3" y="5" width="18" height="14" rx="2" fill="none" stroke="currentColor" stroke-width="1.8"/><path d="M3 9h18M7 15h4" fill="none" stroke="currentColor" stroke-width="1.8"/></symbol>
  <symbol id="food" viewBox="0 0 24 24"><path d="M4 4v6a3 3 0 0 0 3 3V4M10 4v6a3 3 0 0 1-3 3v7M16 4v16M16 4c4 2 4 8 0 10" fill="none" stroke="currentColor" stroke-width="1.8" stroke-linecap="round"/></symbol>
</svg>
