<svg xmlns="http://www.w3.org/2000/svg" width="34" height="24" viewBox="0 0 34 24" role="img" aria-label="모바일 반응용 거북선 측면 실루엣">
  <path d="M7 15H33L30 21H10L7 15Z" fill="#3a241b"/>
  <path d="M9 11H27L31 15H7L9 11Z" fill="#5a3825"/>
  <path d="M10 9H26L28 13H9L10 9Z" fill="#2e211c"/>
  <path d="M3 14C2 12 3 9 5 8L4 6L6 7L8 5L8 8C10 9 11 11 10 14H3Z" fill="#5a2b20"/>
  <path d="M1 13L5 11L4 15L1 13Z" fill="#793729"/>
  <circle cx="6.5" cy="9.8" r="1.2" fill="#ffd35e"/><circle cx="6.5" cy="9.8" r=".5" fill="#171311"/>
  <path d="M13 9L14.5 6.5L16 9M19 9L20.5 6.5L22 9" fill="#c79045" stroke="#2e211c" stroke-width=".7" stroke-linejoin="round"/>
  <circle cx="13" cy="16.6" r="1.1" fill="#d29c52"/><circle cx="18" cy="16.6" r="1.1" fill="#d29c52"/><circle cx="23" cy="16.6" r="1.1" fill="#d29c52"/>
  <path d="M5 22C12 20.8 20 23.1 33 21.7" fill="none" stroke="#63d4e8" stroke-width="1.2" stroke-linecap="round"/>
</svg>
