<?xml version="1.0" standalone="no"?>
<svg xmlns="http://www.w3.org/2000/svg" version="1.1" viewBox="0 0 1176 1176" width="1176" height="1176" shape-rendering="crispEdges">
	<!-- Created with https://api.qrserver.com (QR Code API, see goQR.me/api for information) -->
	<title>QR Code</title>
	<desc>https://daedongmap.com/?hero=2da10529e7fb987c</desc>
	<rect style="fill:rgb(255, 255, 255);fill-opacity:1" x="0" y="0" width="1176" height="1176" />
	<g id="elements">
		<path style="fill:rgb(0, 0, 0)" d="M 96,96 l 24,0 0,24 -24,0 z M 120,96 l 24,0 0,24 -24,0 z M 144,96 l 24,0 0,24 -24,0 z M 168,96 l 24,0 0,24 -24,0 z M 192,96 l 24,0 0,24 -24,0 z M 216,96 l 24,0 0,24 -24,0 z M 240,96 l 24,0 0,24 -24,0 z M 288,96 l 24,0 0,24 -24,0 z M 336,96 l 24,0 0,24 -24,0 z M 432,96 l 24,0 0,24 -24,0 z M 456,96 l 24,0 0,24 -24,0 z M 480,96 l 24,0 0,24 -24,0 z M 504,96 l 24,0 0,24 -24,0 z M 600,96 l 24,0 0,24 -24,0 z M 624,96 l 24,0 0,24 -24,0 z M 672,96 l 24,0 0,24 -24,0 z M 744,96 l 24,0 0,24 -24,0 z M 792,96 l 24,0 0,24 -24,0 z M 816,96 l 24,0 0,24 -24,0 z M 840,96 l 24,0 0,24 -24,0 z M 912,96 l 24,0 0,24 -24,0 z M 936,96 l 24,0 0,24 -24,0 z M 960,96 l 24,0 0,24 -24,0 z M 984,96 l 24,0 0,24 -24,0 z M 1008,96 l 24,0 0,24 -24,0 z M 1032,96 l 24,0 0,24 -24,0 z M 1056,96 l 24,0 0,24 -24,0 z M 96,120 l 24,0 0,24 -24,0 z M 240,120 l 24,0 0,24 -24,0 z M 288,120 l 24,0 0,24 -24,0 z M 312,120 l 24,0 0,24 -24,0 z M 360,120 l 24,0 0,24 -24,0 z M 384,120 l 24,0 0,24 -24,0 z M 408,120 l 24,0 0,24 -24,0 z M 432,120 l 24,0 0,24 -24,0 z M 552,120 l 24,0 0,24 -24,0 z M 576,120 l 24,0 0,24 -24,0 z M 600,120 l 24,0 0,24 -24,0 z M 624,120 l 24,0 0,24 -24,0 z M 648,120 l 24,0 0,24 -24,0 z M 672,120 l 24,0 0,24 -24,0 z M 744,120 l 24,0 0,24 -24,0 z M 768,120 l 24,0 0,24 -24,0 z M 792,120 l 24,0 0,24 -24,0 z M 840,120 l 24,0 0,24 -24,0 z M 912,120 l 24,0 0,24 -24,0 z M 1056,120 l 24,0 0,24 -24,0 z M 96,144 l 24,0 0,24 -24,0 z M 144,144 l 24,0 0,24 -24,0 z M 168,144 l 24,0 0,24 -24,0 z M 192,144 l 24,0 0,24 -24,0 z M 240,144 l 24,0 0,24 -24,0 z M 288,144 l 24,0 0,24 -24,0 z M 312,144 l 24,0 0,24 -24,0 z M 456,144 l 24,0 0,24 -24,0 z M 624,144 l 24,0 0,24 -24,0 z M 672,144 l 24,0 0,24 -24,0 z M 720,144 l 24,0 0,24 -24,0 z M 768,144 l 24,0 0,24 -24,0 z M 792,144 l 24,0 0,24 -24,0 z M 816,144 l 24,0 0,24 -24,0 z M 864,144 l 24,0 0,24 -24,0 z M 912,144 l 24,0 0,24 -24,0 z M 960,144 l 24,0 0,24 -24,0 z M 984,144 l 24,0 0,24 -24,0 z M 1008,144 l 24,0 0,24 -24,0 z M 1056,144 l 24,0 0,24 -24,0 z M 96,168 l 24,0 0,24 -24,0 z M 144,168 l 24,0 0,24 -24,0 z M 168,168 l 24,0 0,24 -24,0 z M 192,168 l 24,0 0,24 -24,0 z M 240,168 l 24,0 0,24 -24,0 z M 336,168 l 24,0 0,24 -24,0 z M 432,168 l 24,0 0,24 -24,0 z M 456,168 l 24,0 0,24 -24,0 z M 528,168 l 24,0 0,24 -24,0 z M 576,168 l 24,0 0,24 -24,0 z M 600,168 l 24,0 0,24 -24,0 z M 624,168 l 24,0 0,24 -24,0 z M 648,168 l 24,0 0,24 -24,0 z M 744,168 l 24,0 0,24 -24,0 z M 768,168 l 24,0 0,24 -24,0 z M 840,168 l 24,0 0,24 -24,0 z M 864,168 l 24,0 0,24 -24,0 z M 912,168 l 24,0 0,24 -24,0 z M 960,168 l 24,0 0,24 -24,0 z M 984,168 l 24,0 0,24 -24,0 z M 1008,168 l 24,0 0,24 -24,0 z M 1056,168 l 24,0 0,24 -24,0 z M 96,192 l 24,0 0,24 -24,0 z M 144,192 l 24,0 0,24 -24,0 z M 168,192 l 24,0 0,24 -24,0 z M 192,192 l 24,0 0,24 -24,0 z M 240,192 l 24,0 0,24 -24,0 z M 312,192 l 24,0 0,24 -24,0 z M 336,192 l 24,0 0,24 -24,0 z M 360,192 l 24,0 0,24 -24,0 z M 384,192 l 24,0 0,24 -24,0 z M 408,192 l 24,0 0,24 -24,0 z M 456,192 l 24,0 0,24 -24,0 z M 504,192 l 24,0 0,24 -24,0 z M 552,192 l 24,0 0,24 -24,0 z M 600,192 l 24,0 0,24 -24,0 z M 624,192 l 24,0 0,24 -24,0 z M 648,192 l 24,0 0,24 -24,0 z M 720,192 l 24,0 0,24 -24,0 z M 816,192 l 24,0 0,24 -24,0 z M 840,192 l 24,0 0,24 -24,0 z M 912,192 l 24,0 0,24 -24,0 z M 960,192 l 24,0 0,24 -24,0 z M 984,192 l 24,0 0,24 -24,0 z M 1008,192 l 24,0 0,24 -24,0 z M 1056,192 l 24,0 0,24 -24,0 z M 96,216 l 24,0 0,24 -24,0 z M 240,216 l 24,0 0,24 -24,0 z M 288,216 l 24,0 0,24 -24,0 z M 312,216 l 24,0 0,24 -24,0 z M 384,216 l 24,0 0,24 -24,0 z M 432,216 l 24,0 0,24 -24,0 z M 552,216 l 24,0 0,24 -24,0 z M 576,216 l 24,0 0,24 -24,0 z M 600,216 l 24,0 0,24 -24,0 z M 624,216 l 24,0 0,24 -24,0 z M 648,216 l 24,0 0,24 -24,0 z M 696,216 l 24,0 0,24 -24,0 z M 744,216 l 24,0 0,24 -24,0 z M 768,216 l 24,0 0,24 -24,0 z M 864,216 l 24,0 0,24 -24,0 z M 912,216 l 24,0 0,24 -24,0 z M 1056,216 l 24,0 0,24 -24,0 z M 96,240 l 24,0 0,24 -24,0 z M 120,240 l 24,0 0,24 -24,0 z M 144,240 l 24,0 0,24 -24,0 z M 168,240 l 24,0 0,24 -24,0 z M 192,240 l 24,0 0,24 -24,0 z M 216,240 l 24,0 0,24 -24,0 z M 240,240 l 24,0 0,24 -24,0 z M 288,240 l 24,0 0,24 -24,0 z M 336,240 l 24,0 0,24 -24,0 z M 384,240 l 24,0 0,24 -24,0 z M 432,240 l 24,0 0,24 -24,0 z M 480,240 l 24,0 0,24 -24,0 z M 528,240 l 24,0 0,24 -24,0 z M 576,240 l 24,0 0,24 -24,0 z M 624,240 l 24,0 0,24 -24,0 z M 672,240 l 24,0 0,24 -24,0 z M 720,240 l 24,0 0,24 -24,0 z M 768,240 l 24,0 0,24 -24,0 z M 816,240 l 24,0 0,24 -24,0 z M 864,240 l 24,0 0,24 -24,0 z M 912,240 l 24,0 0,24 -24,0 z M 936,240 l 24,0 0,24 -24,0 z M 960,240 l 24,0 0,24 -24,0 z M 984,240 l 24,0 0,24 -24,0 z M 1008,240 l 24,0 0,24 -24,0 z M 1032,240 l 24,0 0,24 -24,0 z M 1056,240 l 24,0 0,24 -24,0 z M 288,264 l 24,0 0,24 -24,0 z M 336,264 l 24,0 0,24 -24,0 z M 408,264 l 24,0 0,24 -24,0 z M 432,264 l 24,0 0,24 -24,0 z M 528,264 l 24,0 0,24 -24,0 z M 552,264 l 24,0 0,24 -24,0 z M 576,264 l 24,0 0,24 -24,0 z M 600,264 l 24,0 0,24 -24,0 z M 648,264 l 24,0 0,24 -24,0 z M 672,264 l 24,0 0,24 -24,0 z M 720,264 l 24,0 0,24 -24,0 z M 768,264 l 24,0 0,24 -24,0 z M 816,264 l 24,0 0,24 -24,0 z M 840,264 l 24,0 0,24 -24,0 z M 864,264 l 24,0 0,24 -24,0 z M 144,288 l 24,0 0,24 -24,0 z M 168,288 l 24,0 0,24 -24,0 z M 192,288 l 24,0 0,24 -24,0 z M 240,288 l 24,0 0,24 -24,0 z M 288,288 l 24,0 0,24 -24,0 z M 312,288 l 24,0 0,24 -24,0 z M 360,288 l 24,0 0,24 -24,0 z M 384,288 l 24,0 0,24 -24,0 z M 504,288 l 24,0 0,24 -24,0 z M 528,288 l 24,0 0,24 -24,0 z M 552,288 l 24,0 0,24 -24,0 z M 576,288 l 24,0 0,24 -24,0 z M 600,288 l 24,0 0,24 -24,0 z M 648,288 l 24,0 0,24 -24,0 z M 696,288 l 24,0 0,24 -24,0 z M 792,288 l 24,0 0,24 -24,0 z M 840,288 l 24,0 0,24 -24,0 z M 888,288 l 24,0 0,24 -24,0 z M 912,288 l 24,0 0,24 -24,0 z M 936,288 l 24,0 0,24 -24,0 z M 1008,288 l 24,0 0,24 -24,0 z M 1032,288 l 24,0 0,24 -24,0 z M 1056,288 l 24,0 0,24 -24,0 z M 96,312 l 24,0 0,24 -24,0 z M 120,312 l 24,0 0,24 -24,0 z M 144,312 l 24,0 0,24 -24,0 z M 168,312 l 24,0 0,24 -24,0 z M 216,312 l 24,0 0,24 -24,0 z M 264,312 l 24,0 0,24 -24,0 z M 288,312 l 24,0 0,24 -24,0 z M 312,312 l 24,0 0,24 -24,0 z M 336,312 l 24,0 0,24 -24,0 z M 432,312 l 24,0 0,24 -24,0 z M 504,312 l 24,0 0,24 -24,0 z M 600,312 l 24,0 0,24 -24,0 z M 672,312 l 24,0 0,24 -24,0 z M 768,312 l 24,0 0,24 -24,0 z M 792,312 l 24,0 0,24 -24,0 z M 816,312 l 24,0 0,24 -24,0 z M 840,312 l 24,0 0,24 -24,0 z M 864,312 l 24,0 0,24 -24,0 z M 888,312 l 24,0 0,24 -24,0 z M 912,312 l 24,0 0,24 -24,0 z M 936,312 l 24,0 0,24 -24,0 z M 960,312 l 24,0 0,24 -24,0 z M 1008,312 l 24,0 0,24 -24,0 z M 1032,312 l 24,0 0,24 -24,0 z M 1056,312 l 24,0 0,24 -24,0 z M 96,336 l 24,0 0,24 -24,0 z M 120,336 l 24,0 0,24 -24,0 z M 144,336 l 24,0 0,24 -24,0 z M 216,336 l 24,0 0,24 -24,0 z M 240,336 l 24,0 0,24 -24,0 z M 360,336 l 24,0 0,24 -24,0 z M 456,336 l 24,0 0,24 -24,0 z M 504,336 l 24,0 0,24 -24,0 z M 600,336 l 24,0 0,24 -24,0 z M 648,336 l 24,0 0,24 -24,0 z M 696,336 l 24,0 0,24 -24,0 z M 744,336 l 24,0 0,24 -24,0 z M 768,336 l 24,0 0,24 -24,0 z M 792,336 l 24,0 0,24 -24,0 z M 864,336 l 24,0 0,24 -24,0 z M 912,336 l 24,0 0,24 -24,0 z M 960,336 l 24,0 0,24 -24,0 z M 144,360 l 24,0 0,24 -24,0 z M 168,360 l 24,0 0,24 -24,0 z M 264,360 l 24,0 0,24 -24,0 z M 288,360 l 24,0 0,24 -24,0 z M 384,360 l 24,0 0,24 -24,0 z M 456,360 l 24,0 0,24 -24,0 z M 480,360 l 24,0 0,24 -24,0 z M 576,360 l 24,0 0,24 -24,0 z M 600,360 l 24,0 0,24 -24,0 z M 696,360 l 24,0 0,24 -24,0 z M 720,360 l 24,0 0,24 -24,0 z M 768,360 l 24,0 0,24 -24,0 z M 840,360 l 24,0 0,24 -24,0 z M 864,360 l 24,0 0,24 -24,0 z M 888,360 l 24,0 0,24 -24,0 z M 912,360 l 24,0 0,24 -24,0 z M 936,360 l 24,0 0,24 -24,0 z M 960,360 l 24,0 0,24 -24,0 z M 984,360 l 24,0 0,24 -24,0 z M 1032,360 l 24,0 0,24 -24,0 z M 96,384 l 24,0 0,24 -24,0 z M 168,384 l 24,0 0,24 -24,0 z M 192,384 l 24,0 0,24 -24,0 z M 240,384 l 24,0 0,24 -24,0 z M 288,384 l 24,0 0,24 -24,0 z M 336,384 l 24,0 0,24 -24,0 z M 360,384 l 24,0 0,24 -24,0 z M 432,384 l 24,0 0,24 -24,0 z M 552,384 l 24,0 0,24 -24,0 z M 648,384 l 24,0 0,24 -24,0 z M 672,384 l 24,0 0,24 -24,0 z M 792,384 l 24,0 0,24 -24,0 z M 840,384 l 24,0 0,24 -24,0 z M 864,384 l 24,0 0,24 -24,0 z M 912,384 l 24,0 0,24 -24,0 z M 984,384 l 24,0 0,24 -24,0 z M 1008,384 l 24,0 0,24 -24,0 z M 1056,384 l 24,0 0,24 -24,0 z M 120,408 l 24,0 0,24 -24,0 z M 144,408 l 24,0 0,24 -24,0 z M 216,408 l 24,0 0,24 -24,0 z M 264,408 l 24,0 0,24 -24,0 z M 336,408 l 24,0 0,24 -24,0 z M 360,408 l 24,0 0,24 -24,0 z M 408,408 l 24,0 0,24 -24,0 z M 432,408 l 24,0 0,24 -24,0 z M 456,408 l 24,0 0,24 -24,0 z M 480,408 l 24,0 0,24 -24,0 z M 528,408 l 24,0 0,24 -24,0 z M 552,408 l 24,0 0,24 -24,0 z M 600,408 l 24,0 0,24 -24,0 z M 672,408 l 24,0 0,24 -24,0 z M 696,408 l 24,0 0,24 -24,0 z M 744,408 l 24,0 0,24 -24,0 z M 768,408 l 24,0 0,24 -24,0 z M 816,408 l 24,0 0,24 -24,0 z M 888,408 l 24,0 0,24 -24,0 z M 936,408 l 24,0 0,24 -24,0 z M 960,408 l 24,0 0,24 -24,0 z M 984,408 l 24,0 0,24 -24,0 z M 1008,408 l 24,0 0,24 -24,0 z M 1032,408 l 24,0 0,24 -24,0 z M 1056,408 l 24,0 0,24 -24,0 z M 96,432 l 24,0 0,24 -24,0 z M 120,432 l 24,0 0,24 -24,0 z M 192,432 l 24,0 0,24 -24,0 z M 240,432 l 24,0 0,24 -24,0 z M 288,432 l 24,0 0,24 -24,0 z M 312,432 l 24,0 0,24 -24,0 z M 384,432 l 24,0 0,24 -24,0 z M 456,432 l 24,0 0,24 -24,0 z M 480,432 l 24,0 0,24 -24,0 z M 576,432 l 24,0 0,24 -24,0 z M 600,432 l 24,0 0,24 -24,0 z M 624,432 l 24,0 0,24 -24,0 z M 648,432 l 24,0 0,24 -24,0 z M 696,432 l 24,0 0,24 -24,0 z M 792,432 l 24,0 0,24 -24,0 z M 864,432 l 24,0 0,24 -24,0 z M 888,432 l 24,0 0,24 -24,0 z M 984,432 l 24,0 0,24 -24,0 z M 96,456 l 24,0 0,24 -24,0 z M 120,456 l 24,0 0,24 -24,0 z M 264,456 l 24,0 0,24 -24,0 z M 288,456 l 24,0 0,24 -24,0 z M 312,456 l 24,0 0,24 -24,0 z M 360,456 l 24,0 0,24 -24,0 z M 384,456 l 24,0 0,24 -24,0 z M 408,456 l 24,0 0,24 -24,0 z M 432,456 l 24,0 0,24 -24,0 z M 528,456 l 24,0 0,24 -24,0 z M 672,456 l 24,0 0,24 -24,0 z M 720,456 l 24,0 0,24 -24,0 z M 768,456 l 24,0 0,24 -24,0 z M 792,456 l 24,0 0,24 -24,0 z M 816,456 l 24,0 0,24 -24,0 z M 912,456 l 24,0 0,24 -24,0 z M 936,456 l 24,0 0,24 -24,0 z M 984,456 l 24,0 0,24 -24,0 z M 1032,456 l 24,0 0,24 -24,0 z M 1056,456 l 24,0 0,24 -24,0 z M 96,480 l 24,0 0,24 -24,0 z M 120,480 l 24,0 0,24 -24,0 z M 144,480 l 24,0 0,24 -24,0 z M 216,480 l 24,0 0,24 -24,0 z M 240,480 l 24,0 0,24 -24,0 z M 264,480 l 24,0 0,24 -24,0 z M 288,480 l 24,0 0,24 -24,0 z M 336,480 l 24,0 0,24 -24,0 z M 432,480 l 24,0 0,24 -24,0 z M 456,480 l 24,0 0,24 -24,0 z M 480,480 l 24,0 0,24 -24,0 z M 504,480 l 24,0 0,24 -24,0 z M 528,480 l 24,0 0,24 -24,0 z M 552,480 l 24,0 0,24 -24,0 z M 672,480 l 24,0 0,24 -24,0 z M 792,480 l 24,0 0,24 -24,0 z M 888,480 l 24,0 0,24 -24,0 z M 936,480 l 24,0 0,24 -24,0 z M 1008,480 l 24,0 0,24 -24,0 z M 1032,480 l 24,0 0,24 -24,0 z M 96,504 l 24,0 0,24 -24,0 z M 144,504 l 24,0 0,24 -24,0 z M 216,504 l 24,0 0,24 -24,0 z M 312,504 l 24,0 0,24 -24,0 z M 432,504 l 24,0 0,24 -24,0 z M 456,504 l 24,0 0,24 -24,0 z M 480,504 l 24,0 0,24 -24,0 z M 552,504 l 24,0 0,24 -24,0 z M 600,504 l 24,0 0,24 -24,0 z M 624,504 l 24,0 0,24 -24,0 z M 648,504 l 24,0 0,24 -24,0 z M 672,504 l 24,0 0,24 -24,0 z M 816,504 l 24,0 0,24 -24,0 z M 912,504 l 24,0 0,24 -24,0 z M 936,504 l 24,0 0,24 -24,0 z M 960,504 l 24,0 0,24 -24,0 z M 984,504 l 24,0 0,24 -24,0 z M 1032,504 l 24,0 0,24 -24,0 z M 1056,504 l 24,0 0,24 -24,0 z M 96,528 l 24,0 0,24 -24,0 z M 120,528 l 24,0 0,24 -24,0 z M 144,528 l 24,0 0,24 -24,0 z M 240,528 l 24,0 0,24 -24,0 z M 264,528 l 24,0 0,24 -24,0 z M 288,528 l 24,0 0,24 -24,0 z M 312,528 l 24,0 0,24 -24,0 z M 360,528 l 24,0 0,24 -24,0 z M 432,528 l 24,0 0,24 -24,0 z M 504,528 l 24,0 0,24 -24,0 z M 552,528 l 24,0 0,24 -24,0 z M 576,528 l 24,0 0,24 -24,0 z M 600,528 l 24,0 0,24 -24,0 z M 624,528 l 24,0 0,24 -24,0 z M 672,528 l 24,0 0,24 -24,0 z M 744,528 l 24,0 0,24 -24,0 z M 768,528 l 24,0 0,24 -24,0 z M 816,528 l 24,0 0,24 -24,0 z M 864,528 l 24,0 0,24 -24,0 z M 888,528 l 24,0 0,24 -24,0 z M 960,528 l 24,0 0,24 -24,0 z M 168,552 l 24,0 0,24 -24,0 z M 192,552 l 24,0 0,24 -24,0 z M 288,552 l 24,0 0,24 -24,0 z M 312,552 l 24,0 0,24 -24,0 z M 360,552 l 24,0 0,24 -24,0 z M 384,552 l 24,0 0,24 -24,0 z M 408,552 l 24,0 0,24 -24,0 z M 528,552 l 24,0 0,24 -24,0 z M 552,552 l 24,0 0,24 -24,0 z M 600,552 l 24,0 0,24 -24,0 z M 672,552 l 24,0 0,24 -24,0 z M 696,552 l 24,0 0,24 -24,0 z M 768,552 l 24,0 0,24 -24,0 z M 912,552 l 24,0 0,24 -24,0 z M 960,552 l 24,0 0,24 -24,0 z M 984,552 l 24,0 0,24 -24,0 z M 1056,552 l 24,0 0,24 -24,0 z M 240,576 l 24,0 0,24 -24,0 z M 288,576 l 24,0 0,24 -24,0 z M 312,576 l 24,0 0,24 -24,0 z M 336,576 l 24,0 0,24 -24,0 z M 360,576 l 24,0 0,24 -24,0 z M 384,576 l 24,0 0,24 -24,0 z M 408,576 l 24,0 0,24 -24,0 z M 480,576 l 24,0 0,24 -24,0 z M 552,576 l 24,0 0,24 -24,0 z M 648,576 l 24,0 0,24 -24,0 z M 744,576 l 24,0 0,24 -24,0 z M 816,576 l 24,0 0,24 -24,0 z M 936,576 l 24,0 0,24 -24,0 z M 960,576 l 24,0 0,24 -24,0 z M 1008,576 l 24,0 0,24 -24,0 z M 144,600 l 24,0 0,24 -24,0 z M 168,600 l 24,0 0,24 -24,0 z M 216,600 l 24,0 0,24 -24,0 z M 288,600 l 24,0 0,24 -24,0 z M 384,600 l 24,0 0,24 -24,0 z M 456,600 l 24,0 0,24 -24,0 z M 504,600 l 24,0 0,24 -24,0 z M 576,600 l 24,0 0,24 -24,0 z M 624,600 l 24,0 0,24 -24,0 z M 672,600 l 24,0 0,24 -24,0 z M 720,600 l 24,0 0,24 -24,0 z M 768,600 l 24,0 0,24 -24,0 z M 840,600 l 24,0 0,24 -24,0 z M 888,600 l 24,0 0,24 -24,0 z M 912,600 l 24,0 0,24 -24,0 z M 960,600 l 24,0 0,24 -24,0 z M 1032,600 l 24,0 0,24 -24,0 z M 1056,600 l 24,0 0,24 -24,0 z M 96,624 l 24,0 0,24 -24,0 z M 120,624 l 24,0 0,24 -24,0 z M 144,624 l 24,0 0,24 -24,0 z M 192,624 l 24,0 0,24 -24,0 z M 216,624 l 24,0 0,24 -24,0 z M 240,624 l 24,0 0,24 -24,0 z M 264,624 l 24,0 0,24 -24,0 z M 288,624 l 24,0 0,24 -24,0 z M 336,624 l 24,0 0,24 -24,0 z M 360,624 l 24,0 0,24 -24,0 z M 384,624 l 24,0 0,24 -24,0 z M 408,624 l 24,0 0,24 -24,0 z M 528,624 l 24,0 0,24 -24,0 z M 552,624 l 24,0 0,24 -24,0 z M 576,624 l 24,0 0,24 -24,0 z M 600,624 l 24,0 0,24 -24,0 z M 624,624 l 24,0 0,24 -24,0 z M 648,624 l 24,0 0,24 -24,0 z M 696,624 l 24,0 0,24 -24,0 z M 720,624 l 24,0 0,24 -24,0 z M 744,624 l 24,0 0,24 -24,0 z M 816,624 l 24,0 0,24 -24,0 z M 864,624 l 24,0 0,24 -24,0 z M 888,624 l 24,0 0,24 -24,0 z M 912,624 l 24,0 0,24 -24,0 z M 936,624 l 24,0 0,24 -24,0 z M 960,624 l 24,0 0,24 -24,0 z M 96,648 l 24,0 0,24 -24,0 z M 120,648 l 24,0 0,24 -24,0 z M 144,648 l 24,0 0,24 -24,0 z M 168,648 l 24,0 0,24 -24,0 z M 264,648 l 24,0 0,24 -24,0 z M 288,648 l 24,0 0,24 -24,0 z M 336,648 l 24,0 0,24 -24,0 z M 360,648 l 24,0 0,24 -24,0 z M 384,648 l 24,0 0,24 -24,0 z M 432,648 l 24,0 0,24 -24,0 z M 480,648 l 24,0 0,24 -24,0 z M 528,648 l 24,0 0,24 -24,0 z M 600,648 l 24,0 0,24 -24,0 z M 624,648 l 24,0 0,24 -24,0 z M 720,648 l 24,0 0,24 -24,0 z M 864,648 l 24,0 0,24 -24,0 z M 960,648 l 24,0 0,24 -24,0 z M 1032,648 l 24,0 0,24 -24,0 z M 96,672 l 24,0 0,24 -24,0 z M 120,672 l 24,0 0,24 -24,0 z M 168,672 l 24,0 0,24 -24,0 z M 216,672 l 24,0 0,24 -24,0 z M 240,672 l 24,0 0,24 -24,0 z M 264,672 l 24,0 0,24 -24,0 z M 312,672 l 24,0 0,24 -24,0 z M 360,672 l 24,0 0,24 -24,0 z M 408,672 l 24,0 0,24 -24,0 z M 432,672 l 24,0 0,24 -24,0 z M 504,672 l 24,0 0,24 -24,0 z M 600,672 l 24,0 0,24 -24,0 z M 672,672 l 24,0 0,24 -24,0 z M 696,672 l 24,0 0,24 -24,0 z M 744,672 l 24,0 0,24 -24,0 z M 792,672 l 24,0 0,24 -24,0 z M 840,672 l 24,0 0,24 -24,0 z M 888,672 l 24,0 0,24 -24,0 z M 936,672 l 24,0 0,24 -24,0 z M 960,672 l 24,0 0,24 -24,0 z M 1032,672 l 24,0 0,24 -24,0 z M 120,696 l 24,0 0,24 -24,0 z M 264,696 l 24,0 0,24 -24,0 z M 288,696 l 24,0 0,24 -24,0 z M 384,696 l 24,0 0,24 -24,0 z M 408,696 l 24,0 0,24 -24,0 z M 432,696 l 24,0 0,24 -24,0 z M 456,696 l 24,0 0,24 -24,0 z M 480,696 l 24,0 0,24 -24,0 z M 504,696 l 24,0 0,24 -24,0 z M 528,696 l 24,0 0,24 -24,0 z M 552,696 l 24,0 0,24 -24,0 z M 576,696 l 24,0 0,24 -24,0 z M 624,696 l 24,0 0,24 -24,0 z M 648,696 l 24,0 0,24 -24,0 z M 720,696 l 24,0 0,24 -24,0 z M 768,696 l 24,0 0,24 -24,0 z M 792,696 l 24,0 0,24 -24,0 z M 816,696 l 24,0 0,24 -24,0 z M 840,696 l 24,0 0,24 -24,0 z M 912,696 l 24,0 0,24 -24,0 z M 960,696 l 24,0 0,24 -24,0 z M 984,696 l 24,0 0,24 -24,0 z M 1032,696 l 24,0 0,24 -24,0 z M 1056,696 l 24,0 0,24 -24,0 z M 96,720 l 24,0 0,24 -24,0 z M 120,720 l 24,0 0,24 -24,0 z M 192,720 l 24,0 0,24 -24,0 z M 216,720 l 24,0 0,24 -24,0 z M 240,720 l 24,0 0,24 -24,0 z M 264,720 l 24,0 0,24 -24,0 z M 336,720 l 24,0 0,24 -24,0 z M 360,720 l 24,0 0,24 -24,0 z M 504,720 l 24,0 0,24 -24,0 z M 528,720 l 24,0 0,24 -24,0 z M 552,720 l 24,0 0,24 -24,0 z M 600,720 l 24,0 0,24 -24,0 z M 624,720 l 24,0 0,24 -24,0 z M 672,720 l 24,0 0,24 -24,0 z M 744,720 l 24,0 0,24 -24,0 z M 816,720 l 24,0 0,24 -24,0 z M 864,720 l 24,0 0,24 -24,0 z M 888,720 l 24,0 0,24 -24,0 z M 960,720 l 24,0 0,24 -24,0 z M 1056,720 l 24,0 0,24 -24,0 z M 96,744 l 24,0 0,24 -24,0 z M 144,744 l 24,0 0,24 -24,0 z M 168,744 l 24,0 0,24 -24,0 z M 192,744 l 24,0 0,24 -24,0 z M 216,744 l 24,0 0,24 -24,0 z M 288,744 l 24,0 0,24 -24,0 z M 312,744 l 24,0 0,24 -24,0 z M 336,744 l 24,0 0,24 -24,0 z M 408,744 l 24,0 0,24 -24,0 z M 432,744 l 24,0 0,24 -24,0 z M 480,744 l 24,0 0,24 -24,0 z M 504,744 l 24,0 0,24 -24,0 z M 552,744 l 24,0 0,24 -24,0 z M 624,744 l 24,0 0,24 -24,0 z M 744,744 l 24,0 0,24 -24,0 z M 768,744 l 24,0 0,24 -24,0 z M 816,744 l 24,0 0,24 -24,0 z M 840,744 l 24,0 0,24 -24,0 z M 864,744 l 24,0 0,24 -24,0 z M 960,744 l 24,0 0,24 -24,0 z M 984,744 l 24,0 0,24 -24,0 z M 1032,744 l 24,0 0,24 -24,0 z M 1056,744 l 24,0 0,24 -24,0 z M 120,768 l 24,0 0,24 -24,0 z M 144,768 l 24,0 0,24 -24,0 z M 216,768 l 24,0 0,24 -24,0 z M 240,768 l 24,0 0,24 -24,0 z M 336,768 l 24,0 0,24 -24,0 z M 384,768 l 24,0 0,24 -24,0 z M 408,768 l 24,0 0,24 -24,0 z M 528,768 l 24,0 0,24 -24,0 z M 576,768 l 24,0 0,24 -24,0 z M 600,768 l 24,0 0,24 -24,0 z M 624,768 l 24,0 0,24 -24,0 z M 744,768 l 24,0 0,24 -24,0 z M 768,768 l 24,0 0,24 -24,0 z M 792,768 l 24,0 0,24 -24,0 z M 840,768 l 24,0 0,24 -24,0 z M 888,768 l 24,0 0,24 -24,0 z M 984,768 l 24,0 0,24 -24,0 z M 1008,768 l 24,0 0,24 -24,0 z M 96,792 l 24,0 0,24 -24,0 z M 120,792 l 24,0 0,24 -24,0 z M 144,792 l 24,0 0,24 -24,0 z M 312,792 l 24,0 0,24 -24,0 z M 360,792 l 24,0 0,24 -24,0 z M 456,792 l 24,0 0,24 -24,0 z M 600,792 l 24,0 0,24 -24,0 z M 648,792 l 24,0 0,24 -24,0 z M 672,792 l 24,0 0,24 -24,0 z M 720,792 l 24,0 0,24 -24,0 z M 744,792 l 24,0 0,24 -24,0 z M 792,792 l 24,0 0,24 -24,0 z M 816,792 l 24,0 0,24 -24,0 z M 864,792 l 24,0 0,24 -24,0 z M 960,792 l 24,0 0,24 -24,0 z M 1056,792 l 24,0 0,24 -24,0 z M 96,816 l 24,0 0,24 -24,0 z M 144,816 l 24,0 0,24 -24,0 z M 168,816 l 24,0 0,24 -24,0 z M 192,816 l 24,0 0,24 -24,0 z M 240,816 l 24,0 0,24 -24,0 z M 264,816 l 24,0 0,24 -24,0 z M 312,816 l 24,0 0,24 -24,0 z M 336,816 l 24,0 0,24 -24,0 z M 360,816 l 24,0 0,24 -24,0 z M 384,816 l 24,0 0,24 -24,0 z M 432,816 l 24,0 0,24 -24,0 z M 456,816 l 24,0 0,24 -24,0 z M 480,816 l 24,0 0,24 -24,0 z M 504,816 l 24,0 0,24 -24,0 z M 528,816 l 24,0 0,24 -24,0 z M 672,816 l 24,0 0,24 -24,0 z M 720,816 l 24,0 0,24 -24,0 z M 744,816 l 24,0 0,24 -24,0 z M 768,816 l 24,0 0,24 -24,0 z M 840,816 l 24,0 0,24 -24,0 z M 888,816 l 24,0 0,24 -24,0 z M 912,816 l 24,0 0,24 -24,0 z M 960,816 l 24,0 0,24 -24,0 z M 984,816 l 24,0 0,24 -24,0 z M 1032,816 l 24,0 0,24 -24,0 z M 96,840 l 24,0 0,24 -24,0 z M 192,840 l 24,0 0,24 -24,0 z M 216,840 l 24,0 0,24 -24,0 z M 264,840 l 24,0 0,24 -24,0 z M 336,840 l 24,0 0,24 -24,0 z M 408,840 l 24,0 0,24 -24,0 z M 432,840 l 24,0 0,24 -24,0 z M 456,840 l 24,0 0,24 -24,0 z M 504,840 l 24,0 0,24 -24,0 z M 576,840 l 24,0 0,24 -24,0 z M 600,840 l 24,0 0,24 -24,0 z M 624,840 l 24,0 0,24 -24,0 z M 648,840 l 24,0 0,24 -24,0 z M 672,840 l 24,0 0,24 -24,0 z M 696,840 l 24,0 0,24 -24,0 z M 744,840 l 24,0 0,24 -24,0 z M 792,840 l 24,0 0,24 -24,0 z M 816,840 l 24,0 0,24 -24,0 z M 840,840 l 24,0 0,24 -24,0 z M 864,840 l 24,0 0,24 -24,0 z M 888,840 l 24,0 0,24 -24,0 z M 912,840 l 24,0 0,24 -24,0 z M 960,840 l 24,0 0,24 -24,0 z M 984,840 l 24,0 0,24 -24,0 z M 96,864 l 24,0 0,24 -24,0 z M 168,864 l 24,0 0,24 -24,0 z M 192,864 l 24,0 0,24 -24,0 z M 240,864 l 24,0 0,24 -24,0 z M 264,864 l 24,0 0,24 -24,0 z M 288,864 l 24,0 0,24 -24,0 z M 312,864 l 24,0 0,24 -24,0 z M 336,864 l 24,0 0,24 -24,0 z M 384,864 l 24,0 0,24 -24,0 z M 480,864 l 24,0 0,24 -24,0 z M 504,864 l 24,0 0,24 -24,0 z M 576,864 l 24,0 0,24 -24,0 z M 624,864 l 24,0 0,24 -24,0 z M 648,864 l 24,0 0,24 -24,0 z M 696,864 l 24,0 0,24 -24,0 z M 720,864 l 24,0 0,24 -24,0 z M 744,864 l 24,0 0,24 -24,0 z M 840,864 l 24,0 0,24 -24,0 z M 864,864 l 24,0 0,24 -24,0 z M 888,864 l 24,0 0,24 -24,0 z M 912,864 l 24,0 0,24 -24,0 z M 936,864 l 24,0 0,24 -24,0 z M 960,864 l 24,0 0,24 -24,0 z M 984,864 l 24,0 0,24 -24,0 z M 1008,864 l 24,0 0,24 -24,0 z M 1056,864 l 24,0 0,24 -24,0 z M 288,888 l 24,0 0,24 -24,0 z M 312,888 l 24,0 0,24 -24,0 z M 336,888 l 24,0 0,24 -24,0 z M 408,888 l 24,0 0,24 -24,0 z M 504,888 l 24,0 0,24 -24,0 z M 528,888 l 24,0 0,24 -24,0 z M 600,888 l 24,0 0,24 -24,0 z M 624,888 l 24,0 0,24 -24,0 z M 672,888 l 24,0 0,24 -24,0 z M 720,888 l 24,0 0,24 -24,0 z M 744,888 l 24,0 0,24 -24,0 z M 768,888 l 24,0 0,24 -24,0 z M 792,888 l 24,0 0,24 -24,0 z M 816,888 l 24,0 0,24 -24,0 z M 864,888 l 24,0 0,24 -24,0 z M 960,888 l 24,0 0,24 -24,0 z M 1032,888 l 24,0 0,24 -24,0 z M 1056,888 l 24,0 0,24 -24,0 z M 96,912 l 24,0 0,24 -24,0 z M 120,912 l 24,0 0,24 -24,0 z M 144,912 l 24,0 0,24 -24,0 z M 168,912 l 24,0 0,24 -24,0 z M 192,912 l 24,0 0,24 -24,0 z M 216,912 l 24,0 0,24 -24,0 z M 240,912 l 24,0 0,24 -24,0 z M 408,912 l 24,0 0,24 -24,0 z M 456,912 l 24,0 0,24 -24,0 z M 480,912 l 24,0 0,24 -24,0 z M 552,912 l 24,0 0,24 -24,0 z M 600,912 l 24,0 0,24 -24,0 z M 624,912 l 24,0 0,24 -24,0 z M 672,912 l 24,0 0,24 -24,0 z M 696,912 l 24,0 0,24 -24,0 z M 720,912 l 24,0 0,24 -24,0 z M 744,912 l 24,0 0,24 -24,0 z M 792,912 l 24,0 0,24 -24,0 z M 864,912 l 24,0 0,24 -24,0 z M 912,912 l 24,0 0,24 -24,0 z M 960,912 l 24,0 0,24 -24,0 z M 984,912 l 24,0 0,24 -24,0 z M 96,936 l 24,0 0,24 -24,0 z M 240,936 l 24,0 0,24 -24,0 z M 336,936 l 24,0 0,24 -24,0 z M 408,936 l 24,0 0,24 -24,0 z M 456,936 l 24,0 0,24 -24,0 z M 504,936 l 24,0 0,24 -24,0 z M 528,936 l 24,0 0,24 -24,0 z M 552,936 l 24,0 0,24 -24,0 z M 672,936 l 24,0 0,24 -24,0 z M 744,936 l 24,0 0,24 -24,0 z M 768,936 l 24,0 0,24 -24,0 z M 792,936 l 24,0 0,24 -24,0 z M 816,936 l 24,0 0,24 -24,0 z M 864,936 l 24,0 0,24 -24,0 z M 960,936 l 24,0 0,24 -24,0 z M 1032,936 l 24,0 0,24 -24,0 z M 1056,936 l 24,0 0,24 -24,0 z M 96,960 l 24,0 0,24 -24,0 z M 144,960 l 24,0 0,24 -24,0 z M 168,960 l 24,0 0,24 -24,0 z M 192,960 l 24,0 0,24 -24,0 z M 240,960 l 24,0 0,24 -24,0 z M 288,960 l 24,0 0,24 -24,0 z M 312,960 l 24,0 0,24 -24,0 z M 360,960 l 24,0 0,24 -24,0 z M 384,960 l 24,0 0,24 -24,0 z M 432,960 l 24,0 0,24 -24,0 z M 456,960 l 24,0 0,24 -24,0 z M 480,960 l 24,0 0,24 -24,0 z M 504,960 l 24,0 0,24 -24,0 z M 552,960 l 24,0 0,24 -24,0 z M 576,960 l 24,0 0,24 -24,0 z M 672,960 l 24,0 0,24 -24,0 z M 720,960 l 24,0 0,24 -24,0 z M 768,960 l 24,0 0,24 -24,0 z M 840,960 l 24,0 0,24 -24,0 z M 864,960 l 24,0 0,24 -24,0 z M 888,960 l 24,0 0,24 -24,0 z M 912,960 l 24,0 0,24 -24,0 z M 936,960 l 24,0 0,24 -24,0 z M 960,960 l 24,0 0,24 -24,0 z M 984,960 l 24,0 0,24 -24,0 z M 1056,960 l 24,0 0,24 -24,0 z M 96,984 l 24,0 0,24 -24,0 z M 144,984 l 24,0 0,24 -24,0 z M 168,984 l 24,0 0,24 -24,0 z M 192,984 l 24,0 0,24 -24,0 z M 240,984 l 24,0 0,24 -24,0 z M 288,984 l 24,0 0,24 -24,0 z M 336,984 l 24,0 0,24 -24,0 z M 360,984 l 24,0 0,24 -24,0 z M 384,984 l 24,0 0,24 -24,0 z M 408,984 l 24,0 0,24 -24,0 z M 528,984 l 24,0 0,24 -24,0 z M 624,984 l 24,0 0,24 -24,0 z M 672,984 l 24,0 0,24 -24,0 z M 696,984 l 24,0 0,24 -24,0 z M 768,984 l 24,0 0,24 -24,0 z M 816,984 l 24,0 0,24 -24,0 z M 864,984 l 24,0 0,24 -24,0 z M 888,984 l 24,0 0,24 -24,0 z M 936,984 l 24,0 0,24 -24,0 z M 984,984 l 24,0 0,24 -24,0 z M 1008,984 l 24,0 0,24 -24,0 z M 1032,984 l 24,0 0,24 -24,0 z M 1056,984 l 24,0 0,24 -24,0 z M 96,1008 l 24,0 0,24 -24,0 z M 144,1008 l 24,0 0,24 -24,0 z M 168,1008 l 24,0 0,24 -24,0 z M 192,1008 l 24,0 0,24 -24,0 z M 240,1008 l 24,0 0,24 -24,0 z M 288,1008 l 24,0 0,24 -24,0 z M 336,1008 l 24,0 0,24 -24,0 z M 528,1008 l 24,0 0,24 -24,0 z M 648,1008 l 24,0 0,24 -24,0 z M 696,1008 l 24,0 0,24 -24,0 z M 744,1008 l 24,0 0,24 -24,0 z M 768,1008 l 24,0 0,24 -24,0 z M 864,1008 l 24,0 0,24 -24,0 z M 888,1008 l 24,0 0,24 -24,0 z M 912,1008 l 24,0 0,24 -24,0 z M 936,1008 l 24,0 0,24 -24,0 z M 960,1008 l 24,0 0,24 -24,0 z M 1008,1008 l 24,0 0,24 -24,0 z M 1032,1008 l 24,0 0,24 -24,0 z M 96,1032 l 24,0 0,24 -24,0 z M 240,1032 l 24,0 0,24 -24,0 z M 312,1032 l 24,0 0,24 -24,0 z M 360,1032 l 24,0 0,24 -24,0 z M 384,1032 l 24,0 0,24 -24,0 z M 408,1032 l 24,0 0,24 -24,0 z M 432,1032 l 24,0 0,24 -24,0 z M 456,1032 l 24,0 0,24 -24,0 z M 576,1032 l 24,0 0,24 -24,0 z M 600,1032 l 24,0 0,24 -24,0 z M 672,1032 l 24,0 0,24 -24,0 z M 744,1032 l 24,0 0,24 -24,0 z M 768,1032 l 24,0 0,24 -24,0 z M 864,1032 l 24,0 0,24 -24,0 z M 912,1032 l 24,0 0,24 -24,0 z M 960,1032 l 24,0 0,24 -24,0 z M 984,1032 l 24,0 0,24 -24,0 z M 1008,1032 l 24,0 0,24 -24,0 z M 1032,1032 l 24,0 0,24 -24,0 z M 96,1056 l 24,0 0,24 -24,0 z M 120,1056 l 24,0 0,24 -24,0 z M 144,1056 l 24,0 0,24 -24,0 z M 168,1056 l 24,0 0,24 -24,0 z M 192,1056 l 24,0 0,24 -24,0 z M 216,1056 l 24,0 0,24 -24,0 z M 240,1056 l 24,0 0,24 -24,0 z M 336,1056 l 24,0 0,24 -24,0 z M 360,1056 l 24,0 0,24 -24,0 z M 432,1056 l 24,0 0,24 -24,0 z M 456,1056 l 24,0 0,24 -24,0 z M 552,1056 l 24,0 0,24 -24,0 z M 576,1056 l 24,0 0,24 -24,0 z M 600,1056 l 24,0 0,24 -24,0 z M 648,1056 l 24,0 0,24 -24,0 z M 672,1056 l 24,0 0,24 -24,0 z M 720,1056 l 24,0 0,24 -24,0 z M 744,1056 l 24,0 0,24 -24,0 z M 792,1056 l 24,0 0,24 -24,0 z M 840,1056 l 24,0 0,24 -24,0 z M 912,1056 l 24,0 0,24 -24,0 z M 936,1056 l 24,0 0,24 -24,0 z M 960,1056 l 24,0 0,24 -24,0 z " />
	</g>
</svg>
